<?xml version="1.0" standalone="no"?>
<!DOCTYPE svg PUBLIC "-//W3C//DTD SVG 20010904//EN"
 "http://www.w3.org/TR/2001/REC-SVG-20010904/DTD/svg10.dtd">
<svg version="1.0" xmlns="http://www.w3.org/2000/svg"
 width="800.000000pt" height="600.000000pt" viewBox="0 0 800.000000 600.000000"
 preserveAspectRatio="xMidYMid meet">

<g transform="translate(0.000000,600.000000) scale(0.100000,-0.100000)"
fill="#ffffff" stroke="none">
<path d="M622 5865 c-241 -53 -450 -271 -492 -515 -8 -47 -10 -727 -8 -2400
l3 -2335 27 -73 c86 -231 275 -392 508 -432 47 -8 1001 -10 3400 -8 l3335 3
77 28 c168 62 300 179 373 331 24 50 48 115 54 144 15 75 15 4689 0 4764 -6
29 -31 95 -56 147 -81 169 -234 294 -419 341 -76 20 -117 20 -3408 19 -2772 0
-3342 -3 -3394 -14z m3558 -1378 l0 -422 86 -18 c158 -33 306 -104 446 -215
391 -311 523 -901 300 -1347 -146 -293 -432 -509 -774 -585 l-58 -13 0 -424 0
-423 -165 0 -165 0 0 423 0 424 -63 11 c-318 59 -608 283 -761 590 -64 128
-116 350 -116 499 0 163 39 332 110 482 131 274 357 472 660 579 47 16 104 33
128 37 l42 7 0 409 0 409 165 0 165 0 0 -423z m-2110 -327 l0 -160 -310 0
-310 0 0 -990 0 -990 310 0 310 0 0 -165 0 -165 -407 0 c-462 0 -467 1 -514
76 l-24 39 0 1200 c0 1193 0 1200 21 1235 11 19 35 45 54 57 33 23 34 23 451
23 l419 0 0 -160z m4766 104 c15 -11 37 -33 48 -48 21 -27 21 -31 21 -1241 0
-1210 0 -1214 -21 -1241 -11 -15 -33 -37 -48 -48 -27 -20 -41 -21 -447 -24
l-419 -3 0 161 0 160 305 0 305 0 0 990 0 990 -305 0 -305 0 0 165 0 166 419
-3 c406 -3 420 -4 447 -24z"/>
<path d="M4180 3006 l0 -765 53 15 c211 60 397 219 487 418 70 155 93 370 55
527 -64 269 -272 474 -572 564 l-23 6 0 -765z"/>
<path d="M3790 3724 c-30 -8 -98 -35 -150 -61 -80 -39 -109 -60 -185 -137 -73
-73 -99 -107 -133 -176 -64 -131 -85 -237 -79 -390 3 -69 13 -152 22 -185 40
-145 142 -301 258 -395 68 -55 187 -121 272 -150 l55 -19 0 765 c0 420 -1 764
-2 763 -2 0 -28 -7 -58 -15z"/>
</g>
</svg>
