<?xml version="1.0" standalone="no"?>
<!DOCTYPE svg PUBLIC "-//W3C//DTD SVG 20010904//EN"
 "http://www.w3.org/TR/2001/REC-SVG-20010904/DTD/svg10.dtd">
<svg version="1.0" xmlns="http://www.w3.org/2000/svg"
 width="1200.000000pt" height="400.000000pt" viewBox="0 0 1200.000000 400.000000"
 preserveAspectRatio="xMidYMid meet">

<g transform="translate(0.000000,400.000000) scale(0.100000,-0.100000)"
fill="lightseagreen" stroke="none">
<path d="M1790 3809 c-98 -12 -294 -60 -400 -99 -176 -64 -367 -174 -520 -297
-74 -59 -209 -192 -248 -243 l-20 -25 123 -175 123 -175 -16 -28 c-32 -54
-106 -129 -175 -178 -39 -27 -76 -49 -83 -49 -7 0 -54 54 -106 120 -51 66 -95
116 -99 112 -12 -13 -79 -192 -104 -280 -42 -142 -57 -247 -62 -432 -6 -194 9
-340 52 -510 146 -576 563 -1041 1128 -1256 180 -69 351 -103 562 -111 459
-18 877 123 1231 413 97 79 254 238 254 256 0 5 -15 6 -32 3 -174 -31 -609
-44 -838 -26 -290 23 -467 61 -521 112 -28 26 -29 29 -29 129 0 56 5 110 10
121 42 78 368 131 805 131 366 0 662 -34 791 -91 l45 -21 29 63 c44 99 98 275
122 404 27 143 32 444 9 583 -106 665 -532 1198 -1151 1439 -263 103 -588 143
-880 110z m955 -885 l28 -26 -7 -271 c-4 -150 -12 -305 -17 -345 -12 -99 -48
-171 -112 -225 -56 -47 -830 -573 -885 -601 -113 -58 -278 -30 -383 66 -37 33
-459 572 -459 586 0 4 21 19 48 34 61 34 133 106 169 167 l28 49 139 -200 c77
-110 147 -203 155 -207 9 -5 25 -5 36 0 11 4 274 231 585 503 548 481 566 496
606 496 30 0 48 -7 69 -26z m-1740 -354 c63 -91 64 -93 49 -121 -21 -41 -127
-152 -187 -196 l-50 -37 -24 30 c-13 16 -50 63 -83 106 l-60 76 63 30 c76 36
144 95 187 162 18 28 35 49 37 46 2 -2 33 -45 68 -96z"/>
<path d="M4630 2720 c-91 -4 -176 -12 -190 -18 -14 -5 -62 -13 -105 -17 -44
-4 -87 -9 -97 -11 -55 -16 -36 -188 30 -256 30 -32 57 -35 147 -13 95 23 98
22 90 -26 -4 -23 -20 -80 -36 -127 -16 -47 -29 -94 -29 -105 0 -10 -16 -55
-36 -100 -20 -45 -44 -105 -54 -133 -10 -28 -37 -92 -60 -141 l-41 -90 -122
-17 c-163 -23 -165 -23 -182 -49 -13 -20 -13 -30 0 -85 16 -69 45 -131 69
-151 20 -17 79 -10 220 25 96 23 233 33 256 19 6 -4 17 -1 25 5 8 7 54 14 102
17 50 3 104 12 125 22 37 16 78 72 78 107 0 21 -75 94 -96 94 -7 0 -19 9 -26
20 -10 16 -24 20 -70 20 l-57 0 50 120 c27 67 49 128 49 138 0 9 18 78 41 152
23 74 51 176 64 225 26 102 26 101 137 104 72 1 198 25 236 45 51 26 50 106
-2 126 -13 5 -27 18 -31 30 -11 36 -74 59 -192 70 -59 5 -112 9 -118 8 -5 -1
-84 -4 -175 -8z"/>
<path d="M7605 2716 c-38 -8 -143 -37 -233 -65 -89 -27 -178 -53 -197 -57 -20
-3 -39 -12 -43 -19 -4 -7 -25 -18 -47 -25 -71 -23 -136 -60 -180 -105 -48 -47
-50 -47 -115 10 -31 28 -57 28 -239 4 -267 -35 -549 -117 -567 -164 -10 -24
25 -179 46 -207 11 -15 20 -30 20 -32 0 -7 -87 -194 -100 -216 -60 -100 -71
-166 -47 -285 17 -82 48 -129 105 -157 41 -20 62 -23 167 -23 164 1 275 10
386 35 101 22 152 49 194 104 25 32 26 38 15 71 -7 20 -19 39 -29 42 -9 4 -30
21 -46 38 l-30 33 -60 -13 c-33 -7 -78 -17 -100 -23 -96 -26 -365 -37 -365
-16 0 13 71 144 82 151 7 4 76 8 153 8 154 0 177 7 283 84 46 34 58 76 23 89
-24 9 -101 79 -101 92 0 5 -12 8 -27 5 -55 -8 -232 -15 -247 -9 -9 4 -16 18
-16 34 0 31 22 42 110 55 25 4 63 15 85 25 22 10 91 28 154 39 86 15 126 27
162 49 l47 30 6 -33 c4 -18 4 -40 0 -49 -7 -19 40 -86 60 -86 8 0 16 -6 19
-13 9 -25 180 -60 347 -72 19 -1 69 -15 110 -30 149 -55 155 -63 88 -145 -35
-42 -64 -62 -158 -110 -137 -69 -201 -89 -295 -95 -93 -6 -98 -14 -92 -128 4
-74 9 -94 32 -129 l27 -41 103 6 c89 5 118 11 205 45 275 108 440 277 440 449
0 84 -19 128 -92 213 -8 9 -19 34 -26 57 -12 40 -70 103 -94 103 -7 0 -21 9
-32 19 -12 11 -46 28 -76 38 -71 23 -79 48 -18 58 23 4 49 11 58 15 22 12 161
40 192 40 15 0 30 -5 33 -10 4 -6 21 -8 38 -6 18 3 65 8 106 11 l74 6 -8 -28
c-11 -39 -9 -60 12 -122 11 -32 30 -63 48 -79 29 -24 31 -25 160 -19 71 4 140
9 153 13 31 9 29 -5 -14 -94 -57 -118 -141 -361 -149 -429 -6 -53 -3 -76 20
-148 27 -84 29 -87 83 -122 47 -30 62 -34 95 -30 49 7 76 32 83 78 5 31 2 38
-30 63 -28 21 -36 34 -36 60 0 40 25 127 51 175 10 20 19 41 19 47 0 7 11 34
24 61 36 71 60 125 115 258 l50 120 108 16 c59 10 142 18 183 18 224 5 271 90
120 216 -39 32 -47 35 -108 35 -37 0 -143 -10 -236 -21 -130 -17 -173 -19
-187 -10 -28 17 -69 13 -87 -8 -14 -15 -42 -21 -142 -30 -69 -6 -136 -11 -149
-11 -23 0 -23 1 -8 18 23 25 21 43 -8 86 -14 20 -25 40 -25 44 0 4 -16 31 -35
59 -19 29 -35 56 -35 62 0 33 -242 51 -365 27z"/>
<path d="M9382 2491 c-14 -17 -36 -31 -47 -31 -18 0 -115 -82 -115 -98 -1 -4
-22 -20 -48 -37 -25 -16 -73 -54 -105 -85 -32 -30 -63 -57 -69 -59 -5 -2 -45
-46 -88 -98 -128 -154 -180 -274 -180 -412 0 -66 4 -83 30 -128 38 -66 93
-120 150 -147 39 -18 64 -21 190 -21 167 0 253 13 353 54 40 16 84 32 99 35
35 8 154 85 190 123 32 34 58 101 58 152 0 54 -46 180 -124 341 -38 80 -69
149 -68 154 2 4 -2 14 -8 21 -7 9 -6 21 6 42 24 42 14 68 -58 144 -49 51 -72
68 -101 73 -34 6 -41 4 -65 -23z m90 -474 c22 -45 48 -93 58 -107 9 -14 20
-42 24 -63 10 -56 -16 -85 -126 -140 -79 -40 -109 -49 -202 -62 -129 -18 -158
-18 -209 -4 -46 12 -53 28 -38 78 37 127 282 381 351 366 15 -3 39 1 55 9 16
8 32 13 37 10 5 -3 27 -42 50 -87z"/>
<path d="M10385 2481 c-48 -22 -112 -88 -189 -193 -61 -83 -83 -102 -107 -87
-7 5 -24 9 -37 9 -28 0 -35 -17 -67 -169 -14 -64 -30 -129 -36 -146 -6 -16
-17 -73 -25 -125 -8 -52 -20 -124 -28 -160 -13 -57 -13 -68 -1 -87 8 -12 15
-30 15 -39 0 -33 33 -85 64 -99 29 -14 36 -14 69 0 40 17 78 72 97 143 6 23
13 42 15 42 3 0 33 -22 67 -50 100 -81 386 -190 498 -190 102 0 137 33 135
124 -2 91 -19 111 -108 125 -130 21 -255 58 -320 94 -105 59 -105 59 39 108
292 99 351 194 262 418 -16 41 -38 87 -49 102 -10 15 -19 30 -19 34 0 10 -108
107 -154 137 -48 33 -67 34 -121 9z m67 -312 c27 -20 58 -72 58 -99 0 -12 -89
-53 -177 -80 -36 -11 -67 -20 -69 -20 -11 0 -1 39 19 72 25 41 118 145 130
147 5 1 22 -9 39 -20z"/>
<path d="M5600 2466 c-8 -8 -58 -36 -110 -62 -52 -26 -114 -61 -138 -76 -23
-16 -59 -37 -80 -46 -94 -42 -256 -203 -305 -302 -55 -111 1 -367 97 -446 119
-97 111 -93 246 -127 69 -17 112 -21 233 -20 l148 1 55 42 c30 23 58 48 61 56
10 26 -7 65 -49 110 l-41 44 -91 0 c-119 1 -266 15 -356 36 -65 14 -73 19 -87
50 -14 29 -15 39 -3 76 17 55 136 174 211 213 30 15 76 43 103 61 29 21 93 48
160 69 88 27 118 42 143 67 40 43 53 69 53 108 0 30 -37 80 -60 80 -5 0 -10 7
-10 15 0 9 -12 20 -26 25 -14 6 -32 17 -40 25 -19 19 -95 20 -114 1z"/>
<path d="M11630 2473 c-14 -2 -74 -11 -135 -19 -128 -18 -414 -88 -466 -114
-55 -28 -62 -42 -54 -102 10 -80 23 -123 46 -152 l21 -26 -52 -113 c-29 -61
-59 -119 -66 -128 -8 -8 -14 -21 -14 -28 0 -6 -7 -23 -16 -36 -31 -48 -11
-227 33 -298 39 -62 94 -81 233 -81 347 -1 541 50 596 156 12 23 12 31 -1 62
-9 20 -21 36 -29 36 -7 0 -27 15 -43 34 l-31 33 -58 -12 c-33 -7 -77 -17 -99
-23 -59 -16 -297 -35 -334 -27 -38 8 -37 19 16 110 l35 61 146 -1 147 0 61 33
c34 18 76 46 94 61 28 23 32 32 26 54 -3 15 -13 27 -21 27 -20 0 -95 68 -95
86 0 9 -9 12 -27 9 -55 -8 -232 -15 -247 -9 -9 4 -16 18 -16 34 0 32 24 45
104 56 28 4 68 15 90 25 23 10 82 25 131 33 136 24 163 34 211 78 35 32 44 47
44 74 0 26 -6 37 -27 48 -16 8 -38 25 -51 38 -18 20 -32 25 -75 25 -28 0 -63
-2 -77 -4z"/>
</g>
</svg>
